<?xml version="1.0" standalone="no"?>
<!DOCTYPE svg PUBLIC "-//W3C//DTD SVG 20010904//EN"
 "http://www.w3.org/TR/2001/REC-SVG-20010904/DTD/svg10.dtd">
<svg version="1.0" xmlns="http://www.w3.org/2000/svg"
 width="512.000000pt" height="512.000000pt" viewBox="0 0 512.000000 512.000000"
 preserveAspectRatio="xMidYMid meet">

<g transform="translate(0.000000,512.000000) scale(0.100000,-0.100000)"
fill="#000000" stroke="none">
<path d="M2395 5054 c-373 -37 -636 -109 -930 -253 -908 -446 -1449 -1372
-1394 -2386 51 -933 624 -1758 1489 -2144 481 -214 1054 -267 1575 -144 676
159 1269 606 1608 1212 115 206 192 402 246 623 56 232 66 319 66 598 0 198
-4 279 -18 365 -87 531 -313 989 -670 1361 -393 409 -886 662 -1457 749 -101
15 -432 27 -515 19z m1024 -2458 c281 -701 518 -1290 526 -1310 l15 -36 -399
0 -399 0 -13 38 c-6 20 -39 115 -72 210 l-59 172 -467 -2 -466 -3 -70 -207
-70 -208 -389 0 c-306 0 -387 3 -383 12 3 7 228 582 502 1278 273 696 503
1280 510 1298 l14 32 354 0 354 0 512 -1274z"/>
<path d="M2539 3014 c-29 -77 -269 -759 -269 -766 0 -4 129 -8 286 -8 268 0
286 1 279 18 -3 9 -67 188 -141 397 -75 209 -137 382 -140 384 -2 2 -8 -9 -15
-25z"/>
</g>
</svg>
